TypeMedia1314-WoodType.ufo
<glyph name="three" format="1">
  <advance width="707"/>
  <unicode hex="0033"/>
  <outline>
    <contour>
      <point x="351" y="-250" type="curve" smooth="yes"/>
      <point x="627.535714286" y="-250.0"/>
      <point x="707.0" y="-185.0"/>
      <point x="707" y="26" type="curve" smooth="yes"/>
      <point x="707" y="185"/>
      <point x="695" y="229"/>
      <point x="538" y="229" type="curve"/>
      <point x="538" y="231" type="line"/>
      <point x="699" y="231"/>
      <point x="707" y="275"/>
      <point x="707" y="422" type="curve" smooth="yes"/>
      <point x="707.0" y="681.0"/>
      <point x="660.380952381" y="750.0"/>
      <point x="351" y="750" type="curve" smooth="yes"/>
      <point x="39.5935828877" y="750.0"/>
      <point x="-3.0" y="687.0"/>
      <point x="-3" y="227" type="curve" smooth="yes"/>
      <point x="-3.0" y="-162.0"/>
      <point x="43.3796791444" y="-250.0"/>
    </contour>
  </outline>
</glyph>
<glyph name="five" format="1">
  <advance width="707"/>
  <unicode hex="0035"/>
  <outline>
    <contour>
      <point x="0" y="274" type="line"/>
      <point x="279" y="274" type="line" smooth="yes"/>
      <point x="346" y="274"/>
      <point x="394" y="237"/>
      <point x="394" y="178" type="curve" smooth="yes"/>
      <point x="394" y="139"/>
      <point x="376" y="90"/>
      <point x="315" y="90" type="curve" smooth="yes"/>
      <point x="224" y="90"/>
      <point x="250" y="180"/>
      <point x="134" y="180" type="curve" smooth="yes"/>
      <point x="47" y="180"/>
      <point x="15" y="122"/>
      <point x="0" y="90" type="curve"/>
    </contour>
    <contour>
      <point x="710" y="65" type="line"/>
      <point x="710" y="209"/>
      <point x="641" y="361"/>
      <point x="364" y="361" type="curve"/>
      <point x="364" y="420" type="line"/>
      <point x="710" y="420" type="line"/>
    </contour>
  </outline>
</glyph>
<glyph name="eight" format="1">
  <advance width="707"/>
  <unicode hex="0038"/>
  <outline>
    <contour>
      <point x="368" y="-70" type="curve" smooth="yes"/>
      <point x="426" y="-70"/>
      <point x="458" y="-33"/>
      <point x="458" y="22" type="curve" smooth="yes"/>
      <point x="458" y="99"/>
      <point x="347" y="144"/>
      <point x="316" y="154" type="curve"/>
      <point x="295" y="120"/>
      <point x="268" y="74"/>
      <point x="268" y="30" type="curve" smooth="yes"/>
      <point x="268" y="-15"/>
      <point x="300" y="-70"/>
    </contour>
    <contour>
      <point x="358" y="570" type="curve" smooth="yes"/>
      <point x="285" y="570"/>
      <point x="235" y="524"/>
      <point x="235" y="457" type="curve" smooth="yes"/>
      <point x="235" y="355"/>
      <point x="397" y="306"/>
      <point x="436" y="294" type="curve"/>
      <point x="457" y="333"/>
      <point x="491" y="392"/>
      <point x="491" y="447" type="curve" smooth="yes"/>
      <point x="491" y="502"/>
      <point x="441" y="570"/>
    </contour>
  </outline>
</glyph>
<glyph name="nine" format="1">
  <advance width="2000"/>
  <unicode hex="0039"/>
  <outline>
    <contour>
      <point x="0" y="-250" type="line"/>
      <point x="2000" y="-250" type="line"/>
      <point x="2000" y="750" type="line"/>
      <point x="0" y="750" type="line"/>
    </contour>
  </outline>
</glyph>
<glyph name="A" format="1">
  <advance width="551"/>
  <unicode hex="0041"/>
  <outline>
    <contour>
      <point x="95" y="679" type="line"/>
      <point x="88" y="456"/>
      <point x="63" y="221"/>
      <point x="20" y="-26" type="curve"/>
      <point x="237" y="-32" type="line"/>
      <point x="269" y="503" type="line"/>
      <point x="240" y="462" type="line"/>
      <point x="320" y="464" type="line"/>
      <point x="305" y="505" type="line"/>
      <point x="301" y="-33" type="line"/>
      <point x="531" y="-8" type="line"/>
      <point x="498" y="221"/>
      <point x="477" y="452"/>
      <point x="470" y="685" type="curve"/>
    </contour>
    <contour>
      <point x="200" y="175" type="line"/>
      <point x="206" y="106" type="line"/>
      <point x="352" y="108" type="line"/>
      <point x="342" y="170" type="line"/>
    </contour>
  </outline>
</glyph>
<glyph name="B" format="1">
  <advance width="1414"/>
  <unicode hex="0042"/>
  <outline>
    <contour>
      <point x="1413" y="378" type="curve"/>
      <point x="1413" y="89" type="line"/>
      <point x="1413" y="226"/>
      <point x="1402" y="229"/>
      <point x="1245" y="229" type="curve"/>
      <point x="1245" y="231" type="line"/>
      <point x="1405" y="231"/>
      <point x="1413" y="234"/>
    </contour>
    <contour>
      <point x="1414" y="-250" type="curve"/>
      <point x="1125" y="-250" type="line"/>
      <point x="1384" y="-250"/>
      <point x="1414" y="-228"/>
      <point x="1414" y="13" type="curve"/>
      <point x="1414" y="13"/>
      <point x="1414" y="-250"/>
    </contour>
    <contour>
      <point x="1414" y="750" type="line"/>
      <point x="1414.0" y="750.0"/>
      <point x="1414" y="426"/>
      <point x="1414" y="426" type="curve"/>
      <point x="1414" y="723"/>
      <point x="1384.0" y="750.0"/>
      <point x="1125" y="750" type="curve"/>
    </contour>
    <component base="one_unit"/>
  </outline>
</glyph>
<glyph name="C" format="1">
  <advance width="764"/>
  <unicode hex="0043"/>
  <outline>
    <contour>
      <point x="495" y="725" type="curve" smooth="yes"/>
      <point x="666" y="725"/>
      <point x="735" y="644"/>
      <point x="735" y="524" type="curve" smooth="yes"/>
      <point x="735" y="454"/>
      <point x="714" y="403"/>
      <point x="694" y="370" type="curve"/>
      <point x="480" y="385" type="line"/>
      <point x="489" y="402"/>
      <point x="503" y="441"/>
      <point x="503" y="474" type="curve" smooth="yes"/>
      <point x="503" y="500"/>
      <point x="495" y="519"/>
      <point x="473" y="519" type="curve" smooth="yes"/>
      <point x="428" y="519"/>
      <point x="357" y="436"/>
      <point x="357" y="327" type="curve" smooth="yes"/>
      <point x="357" y="260"/>
      <point x="384" y="245"/>
      <point x="419" y="245" type="curve" smooth="yes"/>
      <point x="464" y="245"/>
      <point x="503" y="271"/>
      <point x="528" y="318" type="curve"/>
      <point x="734" y="198" type="line"/>
      <point x="683" y="80"/>
      <point x="568" y="-26"/>
      <point x="353" y="-26" type="curve" smooth="yes"/>
      <point x="162" y="-26"/>
      <point x="34" y="72"/>
      <point x="34" y="274" type="curve" smooth="yes"/>
      <point x="34" y="544"/>
      <point x="229" y="725"/>
    </contour>
    <contour>
      <point x="296" y="591" type="line"/>
      <point x="175" y="346" type="line"/>
      <point x="278" y="287" type="line"/>
      <point x="387" y="552" type="line"/>
    </contour>
  </outline>
</glyph>
<glyph name="D" format="1">
  <advance width="1414"/>
  <unicode hex="0044"/>
  <outline>
    <contour>
      <point x="0" y="750" type="curve"/>
      <point x="0" y="750"/>
      <point x="1071" y="750"/>
      <point x="1071" y="750" type="curve"/>
      <point x="778" y="735"/>
      <point x="239" y="728"/>
    </contour>
    <contour>
      <point x="1414" y="-250" type="curve"/>
      <point x="1125" y="-250" type="line"/>
      <point x="1384" y="-250"/>
      <point x="1414" y="-228"/>
      <point x="1414" y="13" type="curve"/>
      <point x="1414" y="13"/>
      <point x="1414" y="-250"/>
    </contour>
    <contour>
      <point x="683" y="137" type="curve"/>
      <point x="680" y="168"/>
      <point x="680" y="198"/>
      <point x="683" y="222" type="curve"/>
      <point x="737" y="222"/>
      <point x="767" y="215"/>
      <point x="767" y="182" type="curve"/>
      <point x="767" y="150"/>
      <point x="739" y="137"/>
    </contour>
    <contour>
      <point x="1414" y="750" type="line"/>
      <point x="1414" y="750"/>
      <point x="1414" y="215"/>
      <point x="1414" y="215" type="curve"/>
      <point x="1414" y="705"/>
      <point x="1384" y="750"/>
      <point x="1125" y="750" type="curve"/>
    </contour>
    <contour>
      <point x="0" y="-250" type="curve"/>
      <point x="0" y="750" type="line"/>
      <point x="14" y="588"/>
      <point x="9" y="343"/>
      <point x="0" y="177" type="curve"/>
      <point x="47" y="187"/>
      <point x="36" y="140"/>
      <point x="0" y="147" type="curve"/>
      <point x="12" y="40"/>
      <point x="10" y="-125"/>
    </contour>
    <contour>
      <point x="0" y="-250" type="curve"/>
      <point x="239" y="-228"/>
      <point x="778" y="-235"/>
      <point x="1071" y="-250" type="curve"/>
      <point x="1071" y="-250"/>
      <point x="0" y="-250"/>
    </contour>
    <component base="one_unit"/>
  </outline>
</glyph>
<glyph name="E" format="1">
  <advance width="1414"/>
  <unicode hex="0045"/>
  <outline>
    <contour>
      <point x="773" y="316" type="line"/>
      <point x="773" y="376"/>
      <point x="741.0" y="396.0"/>
      <point x="703" y="396" type="curve"/>
      <point x="664.0" y="396.0"/>
      <point x="633" y="376"/>
      <point x="633" y="316" type="curve"/>
    </contour>
    <contour>
      <point x="773" y="106" type="curve"/>
      <point x="633" y="106" type="line"/>
      <point x="633" y="67"/>
      <point x="664" y="36"/>
      <point x="703" y="36" type="curve"/>
      <point x="741" y="36"/>
      <point x="773" y="67"/>
    </contour>
    <contour>
      <point x="1414" y="129" type="line"/>
      <point x="633" y="129" type="line"/>
      <point x="633" y="106" type="line"/>
      <point x="1414" y="106" type="line"/>
    </contour>
  </outline>
</glyph>
<glyph name="F" format="1">
  <advance width="1414"/>
  <unicode hex="0046"/>
  <outline>
    <contour>
      <point x="1384.0" y="338.0" type="curve"/>
      <point x="1229.0" y="329.0"/>
      <point x="991.0" y="335.0"/>
      <point x="777.0" y="336.0" type="curve"/>
      <point x="777.0" y="308.0"/>
      <point x="766.0" y="292.0"/>
      <point x="749.0" y="292.0" type="curve"/>
      <point x="730.0" y="292.0"/>
      <point x="719.0" y="308.0"/>
      <point x="719.0" y="338.0" type="curve" smooth="yes"/>
      <point x="719.0" y="361.0"/>
      <point x="727.0" y="385.0"/>
      <point x="752.0" y="385.0" type="curve"/>
      <point x="767.0" y="385.0"/>
      <point x="777.0" y="373.0"/>
      <point x="777.0" y="353.0" type="curve"/>
      <point x="965.0" y="361.0"/>
      <point x="1202.0" y="365.0"/>
      <point x="1414.0" y="362.0" type="curve"/>
      <point x="1405.0" y="537.0"/>
      <point x="1405.0" y="643.0"/>
      <point x="1414.0" y="750.0" type="curve"/>
      <point x="1414.0" y="750.0"/>
      <point x="1414.0" y="-250.0"/>
      <point x="1414.0" y="-250.0" type="curve"/>
      <point x="939.0" y="-250.0" type="line"/>
      <point x="937.0" y="-160.0"/>
      <point x="939.0" y="-85.0"/>
      <point x="940.0" y="-57.0" type="curve"/>
      <point x="825.823941625" y="-57.0"/>
      <point x="778" y="-55"/>
      <point x="744.0" y="-41.0" type="curve" smooth="yes"/>
      <point x="727" y="-34"/>
      <point x="721.0" y="-20.0"/>
      <point x="721.0" y="-7.0" type="curve"/>
      <point x="721.0" y="10.0"/>
      <point x="731.0" y="24.0"/>
      <point x="748.0" y="24.0" type="curve"/>
      <point x="766.0" y="24.0"/>
      <point x="777.0" y="14.0"/>
      <point x="777.0" y="-21.0" type="curve"/>
      <point x="813.0" y="-21.0"/>
      <point x="1315.0" y="-19.0"/>
      <point x="1384.0" y="-30.0" type="curve"/>
      <point x="1372.0" y="67.0"/>
      <point x="1375.0" y="239.0"/>
    </contour>
    <contour>
      <point x="0.0" y="-250.0" type="curve"/>
      <point x="0.0" y="750.0" type="line"/>
      <point x="12.0" y="617.0"/>
      <point x="7.0" y="414.0"/>
      <point x="0.0" y="277.0" type="curve"/>
      <point x="25" y="277"/>
      <point x="29" y="198"/>
      <point x="28" y="116" type="curve" smooth="yes"/>
      <point x="27" y="30"/>
      <point x="22" y="-57"/>
      <point x="0.0" y="-57.0" type="curve"/>
      <point x="6.0" y="-109.0"/>
      <point x="5.0" y="-189.0"/>
    </contour>
    <component base="one_unit"/>
  </outline>
</glyph>
<glyph name="G" format="1">
  <advance width="500"/>
  <unicode hex="0047"/>
  <outline>
    <contour>
      <point x="71" y="548" type="line"/>
      <point x="68" y="548"/>
      <point x="327" y="228"/>
      <point x="327" y="228" type="curve"/>
      <point x="527" y="306" type="line"/>
      <point x="527" y="490" type="line"/>
      <point x="415" y="490" type="line"/>
      <point x="438" y="428" type="line"/>
      <point x="378" y="383" type="line"/>
      <point x="185" y="595" type="line"/>
      <point x="409" y="592" type="line"/>
      <point x="404" y="754" type="line"/>
    </contour>
  </outline>
</glyph>
<glyph name="H" format="1">
  <advance width="1414"/>
  <unicode hex="0048"/>
  <outline>
    <contour>
      <point x="530" y="750" type="line"/>
      <point x="885" y="750" type="line"/>
      <point x="885" y="470" type="line"/>
      <point x="885" y="470"/>
      <point x="800" y="549"/>
      <point x="702" y="549" type="curve" smooth="yes"/>
      <point x="604" y="549"/>
      <point x="530" y="470"/>
      <point x="530" y="470" type="curve"/>
    </contour>
    <contour>
      <point x="530" y="-250" type="line"/>
      <point x="530" y="30" type="line"/>
      <point x="530" y="30"/>
      <point x="604" y="-49"/>
      <point x="702" y="-49" type="curve" smooth="yes"/>
      <point x="800" y="-49"/>
      <point x="885" y="30"/>
      <point x="885" y="30" type="curve"/>
      <point x="885" y="-250" type="line"/>
    </contour>
    <component base="one_unit"/>
  </outline>
</glyph>
<glyph name="L" format="1">
  <advance width="1414"/>
  <unicode hex="004C"/>
  <outline>
    <contour>
      <point x="1040" y="750" type="line"/>
      <point x="1040" y="750"/>
      <point x="1040" y="556"/>
      <point x="1040" y="510" type="curve" smooth="yes"/>
      <point x="1040" y="464"/>
      <point x="1038" y="435"/>
      <point x="991" y="435" type="curve" smooth="yes"/>
      <point x="944" y="435"/>
      <point x="771" y="435"/>
      <point x="771" y="435" type="curve"/>
      <point x="771" y="150" type="line"/>
      <point x="1066" y="150" type="line"/>
      <point x="1066" y="150"/>
      <point x="1066" y="295"/>
      <point x="1066" y="348" type="curve" smooth="yes"/>
      <point x="1066" y="401"/>
      <point x="1089" y="416"/>
      <point x="1153" y="416" type="curve" smooth="yes"/>
      <point x="1217" y="416"/>
      <point x="1415" y="416"/>
      <point x="1415" y="416" type="curve"/>
      <point x="1415" y="750" type="line"/>
    </contour>
    <component base="one_unit"/>
  </outline>
</glyph>
<glyph name="N" format="1">
  <advance width="500"/>
  <unicode hex="004E"/>
  <outline>
    <contour>
      <point x="48" y="-4" type="line"/>
      <point x="48" y="627" type="line"/>
      <point x="279" y="631" type="line"/>
      <point x="343" y="397" type="line"/>
      <point x="363" y="641" type="line"/>
      <point x="456" y="641" type="line"/>
      <point x="456" y="-2" type="line"/>
      <point x="197" y="-2" type="line"/>
      <point x="147" y="299" type="line"/>
      <point x="138" y="1" type="line"/>
    </contour>
  </outline>
</glyph>
<glyph name="O" format="1">
  <advance width="622"/>
  <unicode hex="004F"/>
  <outline>
    <contour>
      <point x="310" y="285" type="curve"/>
      <point x="273" y="285"/>
      <point x="267" y="333"/>
      <point x="267" y="378" type="curve"/>
      <point x="267" y="423"/>
      <point x="273" y="468"/>
      <point x="310" y="468" type="curve"/>
      <point x="347" y="468"/>
      <point x="353" y="423"/>
      <point x="353" y="378" type="curve"/>
      <point x="353" y="333"/>
      <point x="347" y="285"/>
    </contour>
    <contour>
      <point x="597" y="376" type="curve"/>
      <point x="597" y="662"/>
      <point x="474" y="758"/>
      <point x="311" y="758" type="curve"/>
      <point x="148" y="758"/>
      <point x="25" y="662"/>
      <point x="25" y="376" type="curve"/>
      <point x="25" y="90"/>
      <point x="148" y="-16"/>
      <point x="311" y="-16" type="curve"/>
      <point x="474" y="-16"/>
      <point x="597" y="90"/>
    </contour>
  </outline>
</glyph>
<glyph name="R" format="1">
  <advance width="1414"/>
  <unicode hex="0052"/>
  <outline>
    <contour>
      <point x="0.0" y="-250.0" type="line"/>
      <point x="550" y="-250" type="line"/>
      <point x="550" y="-100" type="line"/>
      <point x="626" y="-250" type="line"/>
      <point x="1414.0" y="-250.0" type="line"/>
      <point x="1414.0" y="-213.0" type="line"/>
      <point x="1096" y="100" type="line"/>
      <point x="1312" y="111"/>
      <point x="1414" y="225"/>
      <point x="1414" y="430" type="curve" smooth="yes"/>
      <point x="1414" y="628"/>
      <point x="1276" y="750"/>
      <point x="1054" y="750" type="curve" smooth="yes"/>
      <point x="0.0" y="750.0" type="line"/>
    </contour>
  </outline>
</glyph>
<glyph name="S" format="1">
  <advance width="1414"/>
  <unicode hex="0053"/>
  <outline>
    <contour>
      <point x="0" y="-250" type="curve"/>
      <point x="0" y="256" type="line"/>
      <point x="0.0" y="163.0"/>
      <point x="16" y="112"/>
      <point x="407" y="112" type="curve"/>
      <point x="536" y="112"/>
      <point x="606.0" y="125.0"/>
      <point x="638" y="125" type="curve"/>
      <point x="654" y="125"/>
      <point x="666.0" y="117.0"/>
      <point x="666" y="79" type="curve"/>
      <point x="666" y="46"/>
      <point x="660" y="10"/>
      <point x="633" y="10" type="curve"/>
      <point x="608" y="10"/>
      <point x="606" y="50"/>
      <point x="615" y="103" type="curve"/>
      <point x="438.431074213" y="85.945046941"/>
      <point x="206" y="100"/>
      <point x="0" y="128" type="curve"/>
      <point x="9" y="14"/>
      <point x="9.06846181888" y="-147.224099386"/>
    </contour>
    <contour>
      <point x="964" y="750" type="line"/>
      <point x="964.0" y="750.0"/>
      <point x="984.038810478" y="524.535176063"/>
      <point x="965" y="262" type="curve"/>
      <point x="963.997946621" y="742.98562201"/>
      <point x="938.0" y="750.0"/>
      <point x="789" y="750" type="curve"/>
    </contour>
    <contour>
      <point x="1414" y="-250" type="curve"/>
      <point x="1125" y="-250" type="line"/>
      <point x="1414" y="-250"/>
      <point x="1414" y="-250"/>
      <point x="1414" y="13" type="curve"/>
      <point x="1414" y="13"/>
      <point x="1414" y="-250"/>
    </contour>
    <contour>
      <point x="0" y="750" type="line"/>
      <point x="0" y="750"/>
      <point x="535" y="750"/>
      <point x="535" y="750" type="curve"/>
      <point x="27" y="750"/>
      <point x="0" y="738"/>
      <point x="0" y="461" type="curve"/>
    </contour>
    <contour>
      <point x="409" y="-250" type="line"/>
      <point x="409" y="-250"/>
      <point x="389" y="-25"/>
      <point x="401" y="66" type="curve"/>
      <point x="416" y="-246"/>
      <point x="426" y="-250"/>
      <point x="584" y="-250" type="curve"/>
    </contour>
    <contour>
      <point x="1414" y="750" type="curve"/>
      <point x="1414" y="71" type="line"/>
      <point x="1414.0" y="150.0"/>
      <point x="1393" y="193"/>
      <point x="1022" y="193" type="curve"/>
      <point x="939" y="193"/>
      <point x="865.0" y="183.0"/>
      <point x="815" y="183" type="curve"/>
      <point x="778" y="183"/>
      <point x="748" y="191"/>
      <point x="748" y="229" type="curve"/>
      <point x="748" y="262"/>
      <point x="754" y="298"/>
      <point x="781" y="298" type="curve"/>
      <point x="811.555555556" y="298.0"/>
      <point x="812" y="257"/>
      <point x="803" y="201" type="curve"/>
      <point x="1002.56432417" y="220.053880198"/>
      <point x="1230" y="212"/>
      <point x="1414" y="181" type="curve"/>
      <point x="1401" y="351"/>
      <point x="1401.06879904" y="596.815003994"/>
    </contour>
    <component base="one_unit"/>
  </outline>
</glyph>
<glyph name="T" format="1">
  <advance width="1414"/>
  <unicode hex="0054"/>
  <outline>
    <contour>
      <point x="1414" y="77" type="line"/>
      <point x="1414" y="103" type="line"/>
      <point x="1038" y="103" type="line"/>
      <point x="1018" y="389" type="line" smooth="yes"/>
      <point x="1016" y="415"/>
      <point x="991" y="409"/>
      <point x="991" y="389" type="curve" smooth="yes"/>
      <point x="991" y="77" type="line"/>
    </contour>
    <contour>
      <point x="0" y="77" type="line"/>
      <point x="423" y="77" type="line"/>
      <point x="423" y="389" type="line" smooth="yes"/>
      <point x="423" y="409"/>
      <point x="398" y="415"/>
      <point x="396" y="389" type="curve" smooth="yes"/>
      <point x="376" y="103" type="line"/>
      <point x="0" y="103" type="line"/>
    </contour>
  </outline>
</glyph>
<glyph name="U" format="1">
  <advance width="1414"/>
  <unicode hex="0055"/>
  <outline>
    <contour>
      <point x="0" y="310" type="line"/>
      <point x="52" y="310" type="line"/>
      <point x="32" y="-125"/>
      <point x="237" y="-250"/>
      <point x="707" y="-250" type="curve" smooth="yes"/>
      <point x="1177" y="-250"/>
      <point x="1382" y="-125"/>
      <point x="1362" y="310" type="curve"/>
      <point x="1414" y="310" type="line"/>
      <point x="1414" y="750" type="line"/>
      <point x="1060.5" y="750.0"/>
      <point x="0" y="750"/>
      <point x="0" y="750" type="curve"/>
    </contour>
  </outline>
</glyph>
<glyph name="Z" format="1">
  <advance width="1414"/>
  <unicode hex="005A"/>
  <outline>
    <contour>
      <point x="733" y="750" type="line"/>
      <point x="596" y="750"/>
      <point x="593.0" y="677.441860465"/>
      <point x="593" y="490" type="curve"/>
      <point x="593" y="750" type="line"/>
    </contour>
    <contour>
      <point x="0" y="174" type="line"/>
      <point x="296" y="180"/>
      <point x="436" y="176"/>
      <point x="595" y="169" type="curve"/>
      <point x="623" y="213"/>
      <point x="683" y="249"/>
      <point x="750" y="281" type="curve"/>
      <point x="702" y="235"/>
      <point x="626" y="165"/>
      <point x="589" y="157" type="curve" smooth="yes"/>
      <point x="498" y="137"/>
      <point x="340" y="151"/>
      <point x="0" y="156" type="curve"/>
    </contour>
    <contour>
      <point x="1414" y="148" type="line"/>
      <point x="1107" y="142"/>
      <point x="963" y="146"/>
      <point x="813" y="152" type="curve"/>
      <point x="796" y="124"/>
      <point x="721" y="69"/>
      <point x="646" y="41" type="curve"/>
      <point x="711" y="96"/>
      <point x="770" y="157"/>
      <point x="807" y="165" type="curve" smooth="yes"/>
      <point x="904" y="185"/>
      <point x="1064" y="172"/>
      <point x="1414" y="166" type="curve"/>
    </contour>
    <contour>
      <point x="663" y="-250" type="line"/>
      <point x="800" y="-250"/>
      <point x="803" y="-178"/>
      <point x="803" y="8" type="curve"/>
      <point x="803" y="-250" type="line"/>
    </contour>
    <component base="one_unit"/>
  </outline>
</glyph>
<glyph name="Acounter" format="1">
  <advance width="1414"/>
  <outline>
    <contour>
      <point x="729.0" y="298.0" type="line"/>
      <point x="705" y="399" type="line"/>
      <point x="701" y="399" type="line"/>
      <point x="677.0" y="298.0" type="line"/>
    </contour>
    <contour>
      <point x="751" y="213" type="line"/>
      <point x="655" y="213" type="line"/>
      <point x="633" y="129" type="line"/>
      <point x="690" y="129" type="line"/>
      <point x="690" y="-250" type="line"/>
      <point x="716" y="-250" type="line"/>
      <point x="716" y="129" type="line"/>
      <point x="773" y="129" type="line"/>
    </contour>
  </outline>
</glyph>
<glyph name="B-counter" format="1">
  <advance width="1414"/>
  <outline>
    <contour>
      <point x="597" y="7" type="curve"/>
      <point x="591" y="62"/>
      <point x="592" y="121"/>
      <point x="597" y="162" type="curve"/>
      <point x="819" y="162"/>
      <point x="846" y="150"/>
      <point x="846" y="84" type="curve" smooth="yes"/>
      <point x="846" y="31"/>
      <point x="824" y="7"/>
    </contour>
    <contour>
      <point x="597" y="337" type="curve"/>
      <point x="592" y="389"/>
      <point x="592" y="443"/>
      <point x="597" y="482" type="curve"/>
      <point x="801" y="482"/>
      <point x="826" y="470"/>
      <point x="826" y="412" type="curve" smooth="yes"/>
      <point x="826" y="359"/>
      <point x="806" y="337"/>
    </contour>
  </outline>
</glyph>
<glyph name="C.mark" format="1">
  <advance width="1414"/>
  <outline>
    <contour>
      <point x="1193" y="-250" type="line"/>
      <point x="1414" y="-250" type="line"/>
      <point x="1414" y="33" type="line"/>
      <point x="1406" y="33" type="line"/>
      <point x="1374" y="-128"/>
      <point x="1308" y="-212"/>
      <point x="1193" y="-242" type="curve"/>
    </contour>
    <contour>
      <point x="764" y="220" type="line"/>
      <point x="764" y="184"/>
      <point x="761" y="112"/>
      <point x="668" y="112" type="curve" smooth="yes"/>
      <point x="572" y="112"/>
      <point x="540" y="156"/>
      <point x="540" y="246" type="curve" smooth="yes"/>
      <point x="540" y="329"/>
      <point x="589" y="384"/>
      <point x="700" y="384" type="curve" smooth="yes"/>
      <point x="811" y="384"/>
      <point x="848" y="324"/>
      <point x="848" y="228" type="curve"/>
      <point x="788" y="236" type="line"/>
      <point x="1414" y="236" type="line"/>
      <point x="1414" y="220" type="line"/>
    </contour>
    <contour>
      <point x="0" y="608" type="line"/>
      <point x="0" y="750" type="line"/>
      <point x="187" y="750" type="line"/>
      <point x="187" y="742" type="line"/>
      <point x="89" y="722"/>
      <point x="17" y="655"/>
      <point x="8" y="608" type="curve"/>
    </contour>
    <contour>
      <point x="791" y="736"/>
      <point x="857" y="647"/>
      <point x="886" y="447" type="curve"/>
      <point x="894" y="447" type="line"/>
      <point x="894" y="750" type="line"/>
      <point x="673" y="750" type="line"/>
      <point x="673" y="742" type="line"/>
    </contour>
  </outline>
</glyph>
<glyph name="Ccounter" format="1">
  <advance width="1414"/>
  <outline>
    <contour>
      <point x="1414" y="227" type="line"/>
      <point x="1414" y="253" type="line"/>
      <point x="815" y="253" type="line"/>
      <point x="815" y="227" type="line"/>
    </contour>
    <contour>
      <point x="815" y="311" type="line"/>
      <point x="737" y="321"/>
      <point x="675" y="299"/>
      <point x="675" y="240" type="curve" smooth="yes"/>
      <point x="675" y="181"/>
      <point x="737" y="160"/>
      <point x="815" y="170" type="curve"/>
    </contour>
  </outline>
</glyph>
<glyph name="D-counter" format="1">
  <advance width="1414"/>
  <outline>
    <contour>
      <point x="615" y="341" type="curve"/>
      <point x="615" y="140" type="line"/>
      <point x="747.932323482" y="122.566252658"/>
      <point x="855.0" y="156.0"/>
      <point x="855" y="240" type="curve" smooth="yes"/>
      <point x="855.0" y="324.0"/>
      <point x="747.932323482" y="358.433747342"/>
    </contour>
  </outline>
</glyph>
<glyph name="G.mark" format="1">
  <advance width="1414"/>
  <outline>
    <contour>
      <point x="0" y="478" type="line"/>
      <point x="0" y="750" type="line"/>
      <point x="417" y="750" type="line"/>
      <point x="417" y="742" type="line"/>
      <point x="181" y="700"/>
      <point x="37" y="575"/>
      <point x="8" y="478" type="curve"/>
    </contour>
    <contour>
      <point x="523" y="-250" type="line"/>
      <point x="744" y="-250" type="line"/>
      <point x="744" y="-107" type="line"/>
      <point x="736" y="-107" type="line"/>
      <point x="707" y="-195"/>
      <point x="641" y="-236"/>
      <point x="523" y="-242" type="curve"/>
    </contour>
    <contour>
      <point x="1414" y="323" type="line"/>
      <point x="1041" y="323"/>
      <point x="468" y="245"/>
      <point x="468" y="40" type="curve" smooth="yes"/>
      <point x="468" y="-30"/>
      <point x="528" y="-51"/>
      <point x="587" y="-51" type="curve" smooth="yes"/>
      <point x="651" y="-51"/>
      <point x="728" y="-21"/>
      <point x="728" y="73" type="curve" smooth="yes"/>
      <point x="728" y="116"/>
      <point x="718" y="160"/>
      <point x="653" y="206" type="curve"/>
      <point x="564" y="166" type="line"/>
      <point x="488" y="90" type="line"/>
      <point x="496" y="39" type="line"/>
      <point x="496" y="234"/>
      <point x="1041" y="307"/>
      <point x="1414" y="307" type="curve"/>
    </contour>
  </outline>
</glyph>
<glyph name="Gcounter" format="1">
  <advance width="1414"/>
  <outline>
    <contour>
      <point x="1249" y="751" type="line"/>
      <point x="1326" y="721"/>
      <point x="1393" y="657"/>
      <point x="1414" y="560" type="curve"/>
      <point x="1414" y="751" type="line"/>
    </contour>
    <contour>
      <point x="1414" y="227" type="line"/>
      <point x="1414" y="253" type="line"/>
      <point x="815" y="253" type="line"/>
      <point x="815" y="227" type="line"/>
    </contour>
    <contour>
      <point x="815" y="311" type="line"/>
      <point x="737" y="321"/>
      <point x="675" y="299"/>
      <point x="675" y="240" type="curve" smooth="yes"/>
      <point x="675" y="181"/>
      <point x="737" y="160"/>
      <point x="815" y="170" type="curve"/>
    </contour>
    <contour>
      <point x="936" y="-250" type="curve"/>
      <point x="1101" y="-250" type="line"/>
      <point x="1054" y="-119" type="line"/>
      <point x="1028" y="-181"/>
      <point x="982" y="-229"/>
    </contour>
  </outline>
</glyph>
<glyph name="H.v2" format="1">
  <advance width="1414"/>
  <outline>
    <contour>
      <point x="570" y="146" type="line"/>
      <point x="847" y="146" type="line"/>
      <point x="847" y="355" type="line"/>
      <point x="570" y="355" type="line"/>
    </contour>
    <contour>
      <point x="754" y="750" type="line"/>
      <point x="754" y="437" type="line"/>
      <point x="796" y="436"/>
      <point x="806" y="398"/>
      <point x="806" y="267" type="curve" smooth="yes"/>
      <point x="806" y="231" type="line" smooth="yes"/>
      <point x="806" y="100"/>
      <point x="796" y="62"/>
      <point x="754" y="61" type="curve"/>
      <point x="754" y="-250" type="line"/>
      <point x="1414" y="-250" type="line"/>
      <point x="1414" y="61" type="line"/>
      <point x="1372" y="62"/>
      <point x="1362" y="100"/>
      <point x="1362" y="231" type="curve" smooth="yes"/>
      <point x="1362" y="267" type="line" smooth="yes"/>
      <point x="1362" y="398"/>
      <point x="1372" y="436"/>
      <point x="1414" y="437" type="curve"/>
      <point x="1414" y="750" type="line"/>
    </contour>
    <contour>
      <point x="0" y="750" type="line"/>
      <point x="0" y="437" type="line"/>
      <point x="42" y="436"/>
      <point x="52" y="398"/>
      <point x="52" y="267" type="curve" smooth="yes"/>
      <point x="52" y="231" type="line" smooth="yes"/>
      <point x="52" y="100"/>
      <point x="42" y="62"/>
      <point x="0" y="61" type="curve"/>
      <point x="0" y="-250" type="line"/>
      <point x="660" y="-250" type="line"/>
      <point x="660" y="61" type="line"/>
      <point x="618" y="62"/>
      <point x="608" y="100"/>
      <point x="608" y="231" type="curve" smooth="yes"/>
      <point x="608" y="267" type="line" smooth="yes"/>
      <point x="608" y="398"/>
      <point x="618" y="436"/>
      <point x="660" y="437" type="curve"/>
      <point x="660" y="750" type="line"/>
    </contour>
  </outline>
</glyph>
<glyph name="Hcounter" format="1">
  <advance width="1414"/>
  <outline>
    <contour>
      <point x="767" y="403" type="line"/>
      <point x="647" y="403" type="line"/>
      <point x="647" y="379" type="line"/>
      <point x="767" y="379" type="line"/>
    </contour>
    <contour>
      <point x="694" y="750" type="line"/>
      <point x="694" y="403" type="line"/>
      <point x="720" y="403" type="line"/>
      <point x="720" y="750" type="line"/>
    </contour>
    <contour>
      <point x="767" y="101" type="line"/>
      <point x="767" y="125" type="line"/>
      <point x="647" y="125" type="line"/>
      <point x="647" y="101" type="line"/>
    </contour>
    <contour>
      <point x="694" y="-250" type="line"/>
      <point x="720" y="-250" type="line"/>
      <point x="720" y="101" type="line"/>
      <point x="694" y="101" type="line"/>
    </contour>
  </outline>
</glyph>
<glyph name="Hsides" format="1">
  <advance width="1414"/>
  <outline>
    <contour>
      <point x="1414" y="15" type="line"/>
      <point x="1414" y="487" type="line"/>
      <point x="1379" y="487" type="line" smooth="yes"/>
      <point x="1364" y="487"/>
      <point x="1359" y="482"/>
      <point x="1359" y="467" type="curve" smooth="yes"/>
      <point x="1359" y="35" type="line" smooth="yes"/>
      <point x="1359" y="20"/>
      <point x="1364" y="15"/>
      <point x="1379" y="15" type="curve" smooth="yes"/>
    </contour>
    <contour>
      <point x="0" y="15" type="line"/>
      <point x="35" y="15" type="line" smooth="yes"/>
      <point x="50" y="15"/>
      <point x="55" y="20"/>
      <point x="55" y="35" type="curve" smooth="yes"/>
      <point x="55" y="467" type="line" smooth="yes"/>
      <point x="55" y="482"/>
      <point x="50" y="487"/>
      <point x="35" y="487" type="curve" smooth="yes"/>
      <point x="0" y="487" type="line"/>
    </contour>
  </outline>
</glyph>
<glyph name="I.v2" format="1">
  <advance width="1414"/>
  <outline>
    <contour>
      <point x="0" y="750" type="line"/>
      <point x="0" y="437" type="line"/>
      <point x="42" y="436"/>
      <point x="52" y="398"/>
      <point x="52" y="267" type="curve" smooth="yes"/>
      <point x="52" y="231" type="line" smooth="yes"/>
      <point x="52" y="100"/>
      <point x="42" y="62"/>
      <point x="0" y="61" type="curve"/>
      <point x="0" y="-250" type="line"/>
      <point x="1414" y="-250" type="line"/>
      <point x="1414" y="61" type="line"/>
      <point x="1372" y="62"/>
      <point x="1362" y="100"/>
      <point x="1362" y="231" type="curve" smooth="yes"/>
      <point x="1362" y="267" type="line" smooth="yes"/>
      <point x="1362" y="398"/>
      <point x="1372" y="436"/>
      <point x="1414" y="437" type="curve"/>
      <point x="1414" y="750" type="line"/>
    </contour>
  </outline>
</glyph>
<glyph name="J.mark" format="1">
  <advance width="1414"/>
  <outline>
    <contour>
      <point x="17" y="-155"/>
      <point x="89" y="-222"/>
      <point x="187" y="-242" type="curve"/>
      <point x="187" y="-250" type="line"/>
      <point x="0" y="-250" type="line"/>
      <point x="0" y="-108" type="line"/>
      <point x="8" y="-108" type="line"/>
    </contour>
    <contour>
      <point x="1414" y="-108" type="line"/>
      <point x="1414" y="-250" type="line"/>
      <point x="1227" y="-250" type="line"/>
      <point x="1227" y="-242" type="line"/>
      <point x="1325" y="-222"/>
      <point x="1397" y="-155"/>
      <point x="1406" y="-108" type="curve"/>
    </contour>
    <contour>
      <point x="0" y="236" type="line"/>
      <point x="696" y="236" type="line"/>
      <point x="639" y="228" type="line"/>
      <point x="639" y="382" type="line" smooth="yes"/>
      <point x="639" y="455"/>
      <point x="675" y="500"/>
      <point x="766" y="500" type="curve" smooth="yes"/>
      <point x="832" y="500"/>
      <point x="874" y="479"/>
      <point x="874" y="393" type="curve" smooth="yes"/>
      <point x="874" y="246" type="line" smooth="yes"/>
      <point x="874" y="156"/>
      <point x="842" y="112"/>
      <point x="703" y="112" type="curve" smooth="yes"/>
      <point x="599" y="112"/>
      <point x="550" y="160"/>
      <point x="550" y="220" type="curve"/>
      <point x="0" y="220" type="line"/>
    </contour>
  </outline>
</glyph>
<glyph name="K.v2" format="1">
  <advance width="1414"/>
  <outline>
    <contour>
      <point x="1350" y="437" type="line"/>
      <point x="1354" y="750" type="line"/>
      <point x="754" y="750" type="line"/>
      <point x="754" y="438" type="line"/>
      <point x="793" y="438"/>
      <point x="805" y="423"/>
      <point x="805" y="403" type="curve" smooth="yes"/>
      <point x="805" y="384"/>
      <point x="801" y="371"/>
      <point x="783" y="358" type="curve" smooth="yes"/>
      <point x="646" y="260" type="line"/>
      <point x="849" y="-250" type="line"/>
      <point x="1414" y="-250" type="line"/>
      <point x="1414" y="61" type="line"/>
      <point x="1372" y="61"/>
      <point x="1343" y="63"/>
      <point x="1263" y="211" type="curve" smooth="yes"/>
      <point x="1246" y="242" type="line" smooth="yes"/>
      <point x="1176" y="369"/>
      <point x="1228" y="410"/>
      <point x="1323" y="431" type="curve" smooth="yes"/>
    </contour>
    <contour>
      <point x="0" y="750" type="line"/>
      <point x="0" y="437" type="line"/>
      <point x="42" y="436"/>
      <point x="52" y="398"/>
      <point x="52" y="267" type="curve" smooth="yes"/>
      <point x="52" y="231" type="line" smooth="yes"/>
      <point x="52" y="100"/>
      <point x="42" y="62"/>
      <point x="0" y="61" type="curve"/>
      <point x="0" y="-250" type="line"/>
      <point x="660" y="-250" type="line"/>
      <point x="660" y="61" type="line"/>
      <point x="618" y="62"/>
      <point x="608" y="100"/>
      <point x="608" y="231" type="curve" smooth="yes"/>
      <point x="608" y="267" type="line" smooth="yes"/>
      <point x="608" y="398"/>
      <point x="618" y="436"/>
      <point x="660" y="437" type="curve"/>
      <point x="660" y="750" type="line"/>
    </contour>
  </outline>
</glyph>
<glyph name="M-counter" format="1">
  <advance width="1414"/>
  <outline>
    <contour>
      <point x="694" y="-61" type="line"/>
      <point x="694" y="-250" type="line"/>
      <point x="720" y="-250" type="line"/>
      <point x="720" y="-61" type="line"/>
      <point x="787" y="-61" type="line"/>
      <point x="787" y="163" type="line"/>
      <point x="707" y="41" type="line"/>
      <point x="627" y="163" type="line"/>
      <point x="627" y="-61" type="line"/>
    </contour>
  </outline>
</glyph>
<glyph name="N.mark" format="1">
  <advance width="1414"/>
  <outline>
    <contour>
      <point x="566" y="148" type="line"/>
      <point x="566" y="19" type="line" smooth="yes"/>
      <point x="566" y="-49"/>
      <point x="597" y="-64"/>
      <point x="696" y="-63" type="curve"/>
      <point x="571" y="96" type="line"/>
      <point x="816" y="-250" type="line"/>
      <point x="841" y="-250" type="line"/>
    </contour>
    <contour>
      <point x="1414" y="750" type="line"/>
      <point x="1414" y="-59" type="line"/>
      <point x="1344" y="-59"/>
      <point x="1311" y="0"/>
      <point x="1311" y="125" type="curve" smooth="yes"/>
      <point x="1311" y="750" type="line"/>
    </contour>
    <contour>
      <point x="841" y="389" type="line"/>
      <point x="841" y="552" type="line" smooth="yes"/>
      <point x="841" y="611"/>
      <point x="813" y="630"/>
      <point x="697" y="630" type="curve"/>
      <point x="610" y="751" type="line"/>
      <point x="580" y="751" type="line"/>
    </contour>
    <contour>
      <point x="103" y="125" type="line" smooth="yes"/>
      <point x="103" y="0"/>
      <point x="70" y="-59"/>
      <point x="0" y="-59" type="curve"/>
      <point x="0" y="750" type="line"/>
      <point x="103" y="750" type="line"/>
    </contour>
  </outline>
</glyph>
<glyph name="N.v2" format="1">
  <advance width="1414"/>
  <outline>
    <contour>
      <point x="832" y="-250" type="line"/>
      <point x="1362" y="-250" type="line"/>
      <point x="1362" y="267" type="line" smooth="yes"/>
      <point x="1362" y="398"/>
      <point x="1372" y="436"/>
      <point x="1414" y="437" type="curve"/>
      <point x="1414" y="750" type="line"/>
      <point x="888" y="750" type="line"/>
      <point x="888" y="437" type="line"/>
      <point x="930" y="436"/>
      <point x="989" y="398"/>
      <point x="989" y="326" type="curve" smooth="yes"/>
      <point x="989" y="267" type="line"/>
      <point x="565" y="750" type="line"/>
      <point x="0" y="750" type="line"/>
      <point x="0" y="427" type="line"/>
      <point x="42" y="426"/>
      <point x="62" y="398"/>
      <point x="62" y="267" type="curve" smooth="yes"/>
      <point x="62" y="231" type="line" smooth="yes"/>
      <point x="62" y="100"/>
      <point x="42" y="62"/>
      <point x="0" y="61" type="curve"/>
      <point x="0" y="-250" type="line"/>
      <point x="491" y="-250" type="line"/>
      <point x="491" y="62" type="line"/>
      <point x="449" y="63"/>
      <point x="393" y="101"/>
      <point x="393" y="174" type="curve" smooth="yes"/>
      <point x="393" y="252" type="line"/>
    </contour>
  </outline>
</glyph>
<glyph name="O.v2" format="1">
  <advance width="1414"/>
  <outline>
    <contour>
      <point x="707" y="71" type="curve" smooth="yes"/>
      <point x="627" y="71"/>
      <point x="614" y="129"/>
      <point x="614" y="251" type="curve" smooth="yes"/>
      <point x="614" y="373"/>
      <point x="627" y="430"/>
      <point x="707" y="430" type="curve" smooth="yes"/>
      <point x="787" y="430"/>
      <point x="800" y="373"/>
      <point x="800" y="251" type="curve" smooth="yes"/>
      <point x="800" y="129"/>
      <point x="787" y="71"/>
    </contour>
    <contour>
      <point x="708" y="-249" type="curve" smooth="yes"/>
      <point x="1346" y="-249"/>
      <point x="1416" y="-211"/>
      <point x="1416" y="251" type="curve" smooth="yes"/>
      <point x="1416" y="713"/>
      <point x="1346" y="750"/>
      <point x="708" y="750" type="curve" smooth="yes"/>
      <point x="70" y="750"/>
      <point x="0" y="713"/>
      <point x="0" y="251" type="curve" smooth="yes"/>
      <point x="0" y="-211"/>
      <point x="70" y="-249"/>
    </contour>
  </outline>
</glyph>
<glyph name="Ocounter" format="1">
  <advance width="1414"/>
  <outline>
    <contour>
      <point x="738" y="228" type="curve" smooth="yes"/>
      <point x="871" y="228"/>
      <point x="925" y="239"/>
      <point x="925" y="268" type="curve" smooth="yes"/>
      <point x="925" y="298"/>
      <point x="871" y="298"/>
      <point x="738" y="298" type="curve" smooth="yes"/>
      <point x="603" y="298"/>
      <point x="550" y="298"/>
      <point x="550" y="268" type="curve" smooth="yes"/>
      <point x="550" y="239"/>
      <point x="603" y="228"/>
    </contour>
  </outline>
</glyph>
<glyph name="R.mark" format="1">
  <advance width="1414"/>
  <outline>
    <contour>
      <point x="537" y="-250" type="line"/>
      <point x="638" y="-250" type="line"/>
      <point x="578" y="-130"/>
      <point x="556" y="24"/>
      <point x="545" y="140" type="curve"/>
      <point x="537" y="140" type="line"/>
    </contour>
    <contour>
      <point x="590" y="202" type="line"/>
      <point x="622" y="124"/>
      <point x="744" y="-72"/>
      <point x="868" y="-72" type="curve" smooth="yes"/>
      <point x="995" y="-72"/>
      <point x="962" y="299"/>
      <point x="934" y="468" type="curve"/>
      <point x="1414" y="468" type="line"/>
      <point x="1414" y="484" type="line"/>
      <point x="914" y="484" type="line"/>
      <point x="927" y="417"/>
      <point x="941" y="310"/>
      <point x="944" y="208" type="curve"/>
      <point x="946" y="216" type="line"/>
      <point x="858" y="177"/>
      <point x="695" y="163"/>
      <point x="594" y="205" type="curve"/>
    </contour>
    <contour>
      <point x="541" y="362" type="line"/>
      <point x="596" y="362"/>
      <point x="627" y="346"/>
      <point x="627" y="317" type="curve" smooth="yes"/>
      <point x="627" y="286"/>
      <point x="596" y="268"/>
      <point x="541" y="268" type="curve"/>
    </contour>
  </outline>
</glyph>
<glyph name="S.mark" format="1">
  <advance width="1414"/>
  <outline>
    <contour>
      <point x="1395" y="42" type="line" smooth="yes"/>
      <point x="1394" y="-137"/>
      <point x="1277" y="-218"/>
      <point x="1157" y="-242" type="curve"/>
      <point x="1157" y="-250" type="line"/>
      <point x="1414" y="-250" type="line"/>
      <point x="1414" y="275" type="line" smooth="yes"/>
      <point x="1414" y="405"/>
      <point x="1342" y="486"/>
      <point x="1163" y="486" type="curve" smooth="yes"/>
      <point x="946" y="486"/>
      <point x="815" y="410"/>
      <point x="567" y="322" type="curve"/>
      <point x="573" y="306" type="line"/>
      <point x="821" y="396"/>
      <point x="950" y="470"/>
      <point x="1163" y="470" type="curve" smooth="yes"/>
      <point x="1333" y="470"/>
      <point x="1398" y="395"/>
      <point x="1398" y="275" type="curve" smooth="yes"/>
    </contour>
    <contour>
      <point x="842" y="361" type="line"/>
      <point x="580" y="262"/>
      <point x="459" y="198"/>
      <point x="242" y="198" type="curve" smooth="yes"/>
      <point x="81" y="198"/>
      <point x="16" y="273"/>
      <point x="16" y="393" type="curve" smooth="yes"/>
      <point x="19" y="548" type="line" smooth="yes"/>
      <point x="21" y="673"/>
      <point x="122" y="727"/>
      <point x="227" y="742" type="curve"/>
      <point x="227" y="750" type="line"/>
      <point x="0" y="750" type="line"/>
      <point x="0" y="393" type="line" smooth="yes"/>
      <point x="0" y="263"/>
      <point x="69" y="182"/>
      <point x="242" y="182" type="curve" smooth="yes"/>
      <point x="463" y="182"/>
      <point x="586" y="248"/>
      <point x="848" y="347" type="curve"/>
    </contour>
  </outline>
</glyph>
<glyph name="T.mark" format="1">
  <advance width="1414"/>
  <outline>
    <contour>
      <point x="575" y="166" type="line"/>
      <point x="575" y="270" type="line" smooth="yes"/>
      <point x="575" y="316"/>
      <point x="546" y="347"/>
      <point x="505" y="347" type="curve" smooth="yes"/>
      <point x="464" y="347"/>
      <point x="438" y="316"/>
      <point x="438" y="270" type="curve" smooth="yes"/>
      <point x="438" y="67" type="line"/>
      <point x="0" y="67" type="line"/>
      <point x="0" y="51" type="line"/>
      <point x="454" y="51" type="line"/>
      <point x="454" y="173" type="line"/>
      <point x="447" y="166" type="line"/>
    </contour>
    <contour>
      <point x="960" y="173" type="line"/>
      <point x="960" y="51" type="line"/>
      <point x="1415" y="51" type="line"/>
      <point x="1415" y="67" type="line"/>
      <point x="976" y="67" type="line"/>
      <point x="976" y="270" type="line" smooth="yes"/>
      <point x="976" y="316"/>
      <point x="950" y="347"/>
      <point x="909" y="347" type="curve" smooth="yes"/>
      <point x="868" y="347"/>
      <point x="839" y="316"/>
      <point x="839" y="270" type="curve" smooth="yes"/>
      <point x="839" y="166" type="line"/>
      <point x="967" y="166" type="line"/>
    </contour>
  </outline>
</glyph>
<glyph name="U.mark" format="1">
  <advance width="1414"/>
  <outline>
    <contour>
      <point x="583" y="-250" type="line"/>
      <point x="805" y="-250" type="line"/>
      <point x="837" y="-139"/>
      <point x="859" y="-28"/>
      <point x="859" y="83" type="curve"/>
      <point x="851" y="83" type="line"/>
      <point x="841" y="-122"/>
      <point x="751" y="-235"/>
      <point x="583" y="-242" type="curve"/>
    </contour>
    <contour>
      <point x="643" y="350" type="line"/>
      <point x="699" y="350" type="line"/>
      <point x="679" y="750" type="line"/>
      <point x="663" y="750" type="line"/>
    </contour>
    <contour>
      <point x="762" y="397" type="line"/>
      <point x="579" y="397" type="line"/>
      <point x="579" y="250" type="line" smooth="yes"/>
      <point x="579" y="199"/>
      <point x="620" y="158"/>
      <point x="671" y="158" type="curve" smooth="yes"/>
      <point x="721" y="158"/>
      <point x="762" y="199"/>
      <point x="762" y="250" type="curve" smooth="yes"/>
    </contour>
  </outline>
</glyph>
<glyph name="V.v2" format="1">
  <advance width="1414"/>
  <outline>
    <contour>
      <point x="789" y="750" type="line"/>
      <point x="789" y="437" type="line"/>
      <point x="838" y="430"/>
      <point x="848" y="388"/>
      <point x="822" y="283" type="curve" smooth="yes"/>
      <point x="715" y="-153" type="line"/>
      <point x="759" y="-153" type="line"/>
      <point x="662" y="283" type="line" smooth="yes"/>
      <point x="639" y="388"/>
      <point x="646" y="430"/>
      <point x="695" y="437" type="curve"/>
      <point x="695" y="750" type="line"/>
      <point x="0.0" y="750.0" type="line"/>
      <point x="0.0" y="437.0" type="line"/>
      <point x="49.0" y="430.0"/>
      <point x="63.0" y="385.0"/>
      <point x="89.0" y="283.0" type="curve" smooth="yes"/>
      <point x="227.0" y="-250.0" type="line"/>
      <point x="1182.0" y="-250.0" type="line"/>
      <point x="1325" y="283" type="line" smooth="yes"/>
      <point x="1352" y="383"/>
      <point x="1365" y="430"/>
      <point x="1414" y="437" type="curve"/>
      <point x="1414" y="750" type="line"/>
    </contour>
  </outline>
</glyph>
<glyph name="ampersand.mark" format="1">
  <advance width="1414"/>
  <outline>
    <contour>
      <point x="1353" y="278"/>
      <point x="1339" y="267"/>
      <point x="1339" y="248" type="curve" smooth="yes"/>
      <point x="1339" y="215"/>
      <point x="1406" y="192"/>
      <point x="1406" y="84" type="curve"/>
      <point x="1414" y="84" type="line"/>
      <point x="1414" y="278" type="line"/>
    </contour>
    <contour>
      <point x="917" y="440" type="line"/>
      <point x="917" y="298" type="line"/>
      <point x="780" y="298" type="line"/>
      <point x="780" y="306" type="line"/>
      <point x="851" y="326"/>
      <point x="903" y="393"/>
      <point x="909" y="440" type="curve"/>
    </contour>
    <contour>
      <point x="621" y="157" type="line"/>
      <point x="621" y="88" type="line" smooth="yes"/>
      <point x="621" y="29"/>
      <point x="649" y="9"/>
      <point x="681" y="9" type="curve" smooth="yes"/>
      <point x="713" y="9"/>
      <point x="727" y="29"/>
      <point x="727" y="52" type="curve" smooth="yes"/>
      <point x="727" y="84"/>
      <point x="694" y="117"/>
      <point x="629" y="157" type="curve"/>
    </contour>
    <contour>
      <point x="0" y="608" type="line"/>
      <point x="0" y="750" type="line"/>
      <point x="137" y="750" type="line"/>
      <point x="137" y="742" type="line"/>
      <point x="66" y="722"/>
      <point x="14" y="655"/>
      <point x="8" y="608" type="curve"/>
    </contour>
    <contour>
      <point x="903" y="655"/>
      <point x="851" y="722"/>
      <point x="780" y="742" type="curve"/>
      <point x="780" y="750" type="line"/>
      <point x="917" y="750" type="line"/>
      <point x="917" y="608" type="line"/>
      <point x="909" y="608" type="line"/>
    </contour>
    <contour>
      <point x="61" y="243"/>
      <point x="16" y="215"/>
      <point x="7" y="171" type="curve"/>
      <point x="0" y="171" type="line"/>
      <point x="0" y="348" type="line"/>
      <point x="8" y="348" type="line"/>
      <point x="18" y="306"/>
      <point x="60" y="272"/>
      <point x="91" y="261" type="curve"/>
      <point x="91" y="253" type="line"/>
    </contour>
    <contour>
      <point x="1414" y="-108" type="line"/>
      <point x="1414" y="-250" type="line"/>
      <point x="1277" y="-250" type="line"/>
      <point x="1277" y="-242" type="line"/>
      <point x="1348" y="-222"/>
      <point x="1400" y="-155"/>
      <point x="1406" y="-108" type="curve"/>
    </contour>
    <contour>
      <point x="14" y="-155"/>
      <point x="66" y="-222"/>
      <point x="137" y="-242" type="curve"/>
      <point x="137" y="-250" type="line"/>
      <point x="0" y="-250" type="line"/>
      <point x="0" y="-108" type="line"/>
      <point x="8" y="-108" type="line"/>
    </contour>
    <contour>
      <point x="507" y="339" type="line"/>
      <point x="507" y="408" type="line" smooth="yes"/>
      <point x="507" y="467"/>
      <point x="479" y="487"/>
      <point x="447" y="487" type="curve" smooth="yes"/>
      <point x="415" y="487"/>
      <point x="401" y="467"/>
      <point x="401" y="444" type="curve" smooth="yes"/>
      <point x="401" y="412"/>
      <point x="434" y="379"/>
      <point x="499" y="339" type="curve"/>
    </contour>
  </outline>
</glyph>
<glyph name="bifurcates" format="1">
  <advance width="1414"/>
  <outline>
    <contour>
      <point x="963" y="750" type="curve"/>
      <point x="1252" y="750" type="line"/>
      <point x="1115" y="750"/>
      <point x="1112" y="739"/>
      <point x="1112" y="582" type="curve"/>
      <point x="1110" y="582" type="line"/>
      <point x="1110" y="742"/>
      <point x="1107" y="750"/>
    </contour>
    <contour>
      <point x="263" y="750" type="curve"/>
      <point x="552" y="750" type="line"/>
      <point x="415" y="750"/>
      <point x="412" y="739"/>
      <point x="412" y="582" type="curve"/>
      <point x="410" y="582" type="line"/>
      <point x="410" y="742"/>
      <point x="407" y="750"/>
    </contour>
    <contour>
      <point x="552" y="-250" type="curve"/>
      <point x="263" y="-250" type="line"/>
      <point x="400" y="-250"/>
      <point x="403" y="-239"/>
      <point x="403" y="-82" type="curve"/>
      <point x="405" y="-82" type="line"/>
      <point x="405" y="-242"/>
      <point x="408" y="-250"/>
    </contour>
    <component base="one_unit"/>
  </outline>
</glyph>
<glyph name="pattern01" format="1">
  <advance width="1414"/>
  <outline>
    <contour>
      <point x="1414" y="26" type="curve"/>
      <point x="1414" y="5" type="line"/>
      <point x="1379" y="26"/>
      <point x="1332" y="45"/>
      <point x="1289" y="57" type="curve"/>
      <point x="1289" y="57"/>
      <point x="1352" y="45"/>
    </contour>
    <contour>
      <point x="993" y="750" type="curve"/>
      <point x="1021" y="750" type="line"/>
      <point x="1087" y="640"/>
      <point x="1169" y="514"/>
      <point x="1241" y="435" type="curve"/>
      <point x="1213" y="549"/>
      <point x="1217" y="619"/>
      <point x="1260" y="702" type="curve"/>
      <point x="1249" y="593"/>
      <point x="1336" y="495"/>
      <point x="1414" y="384" type="curve"/>
      <point x="1414" y="333" type="line"/>
      <point x="1344" y="443"/>
      <point x="1256" y="530"/>
      <point x="1253" y="604" type="curve"/>
      <point x="1241" y="549"/>
      <point x="1270" y="462"/>
      <point x="1260" y="375" type="curve"/>
      <point x="1162" y="495"/>
      <point x="1056" y="623"/>
    </contour>
    <contour>
      <point x="634" y="667" type="curve"/>
      <point x="614" y="695"/>
      <point x="591" y="722"/>
      <point x="567" y="750" type="curve"/>
      <point x="614" y="750" type="line"/>
      <point x="618" y="722"/>
      <point x="627" y="695"/>
    </contour>
    <contour>
      <point x="1414" y="-2" type="curve"/>
      <point x="1414" y="-14" type="line"/>
      <point x="1402" y="-10"/>
      <point x="1391" y="-6"/>
      <point x="1376" y="1" type="curve"/>
      <point x="1376" y="1"/>
      <point x="1383" y="5"/>
    </contour>
    <contour>
      <point x="0" y="648" type="line"/>
      <point x="79" y="656"/>
      <point x="154" y="656"/>
      <point x="201" y="640" type="curve"/>
      <point x="180" y="676"/>
      <point x="165" y="710"/>
      <point x="154" y="750" type="curve"/>
      <point x="180" y="750" type="line"/>
      <point x="209" y="680"/>
      <point x="263" y="608"/>
      <point x="342" y="581" type="curve"/>
      <point x="224" y="619"/>
      <point x="106" y="623"/>
      <point x="0" y="616" type="curve"/>
    </contour>
    <contour>
      <point x="1414" y="-141" type="curve"/>
      <point x="1414" y="-203" type="line"/>
      <point x="1379" y="-195"/>
      <point x="1352" y="-184"/>
      <point x="1324" y="-164" type="curve"/>
      <point x="1270" y="-105"/>
      <point x="1217" y="20"/>
      <point x="1111" y="20" type="curve" smooth="yes"/>
      <point x="1076" y="20"/>
      <point x="1048" y="13"/>
      <point x="1021" y="9" type="curve"/>
      <point x="1012" y="20"/>
      <point x="1012" y="38"/>
      <point x="1012" y="38" type="curve"/>
      <point x="934" y="-14"/>
      <point x="880" y="6"/>
      <point x="857" y="14" type="curve"/>
      <point x="772" y="-76"/>
      <point x="716" y="-158"/>
      <point x="824" y="-209" type="curve"/>
      <point x="667" y="-256"/>
      <point x="599" y="-148"/>
      <point x="580" y="-49" type="curve"/>
      <point x="501.848132728" y="-140.012301127"/>
      <point x="345" y="-239"/>
      <point x="178" y="-239" type="curve" smooth="yes"/>
      <point x="116" y="-239"/>
      <point x="58.1206479048" y="-228.831399069"/>
      <point x="0" y="-203" type="curve"/>
      <point x="0" y="174" type="line"/>
      <point x="142" y="203"/>
      <point x="263" y="242"/>
      <point x="394" y="337" type="curve"/>
      <point x="351" y="242"/>
      <point x="288" y="136"/>
      <point x="315" y="-14" type="curve"/>
      <point x="423" y="45"/>
      <point x="595" y="234"/>
      <point x="667" y="356" type="curve"/>
      <point x="634" y="170"/>
      <point x="623" y="30"/>
      <point x="671" y="-34" type="curve"/>
      <point x="709" y="143"/>
      <point x="843" y="329"/>
      <point x="1041" y="293" type="curve"/>
      <point x="925" y="278"/>
      <point x="862" y="151"/>
      <point x="855" y="72" type="curve"/>
      <point x="949" y="57"/>
      <point x="1032" y="116"/>
      <point x="1076" y="151" type="curve"/>
      <point x="1065" y="116"/>
      <point x="1048" y="64"/>
      <point x="1048" y="64" type="curve"/>
      <point x="1067" y="72"/>
      <point x="1111" y="81"/>
      <point x="1135" y="81" type="curve" smooth="yes"/>
      <point x="1190" y="81"/>
      <point x="1217" y="45"/>
      <point x="1285" y="-58" type="curve" smooth="yes"/>
      <point x="1312" y="-97"/>
      <point x="1363" y="-116"/>
    </contour>
    <contour>
      <point x="0" y="262" type="line"/>
      <point x="15" y="267"/>
      <point x="28" y="269"/>
      <point x="40" y="269" type="curve"/>
      <point x="28" y="262"/>
      <point x="15" y="249"/>
      <point x="0" y="242" type="curve"/>
    </contour>
    <contour>
      <point x="248" y="750" type="curve"/>
      <point x="292" y="750" type="line"/>
      <point x="347" y="716"/>
      <point x="409" y="687"/>
      <point x="481" y="676" type="curve"/>
      <point x="466" y="695"/>
      <point x="453" y="722"/>
      <point x="445" y="750" type="curve"/>
      <point x="488" y="750" type="line"/>
      <point x="512" y="683"/>
      <point x="532" y="660"/>
      <point x="580" y="640" type="curve"/>
      <point x="496" y="640"/>
      <point x="366" y="667"/>
    </contour>
    <contour>
      <point x="799" y="-23" type="curve"/>
      <point x="808" y="-6"/>
      <point x="828" y="13"/>
      <point x="843" y="30" type="curve"/>
      <point x="828" y="108"/>
      <point x="870" y="206"/>
      <point x="899" y="234" type="curve"/>
      <point x="799" y="195"/>
      <point x="745" y="72"/>
      <point x="730" y="-42" type="curve"/>
      <point x="756" y="30"/>
      <point x="784" y="83"/>
      <point x="843" y="159" type="curve"/>
      <point x="817" y="108"/>
      <point x="784" y="30"/>
      <point x="780" y="-23" type="curve"/>
      <point x="780" y="-23"/>
      <point x="799" y="20"/>
      <point x="819" y="45" type="curve"/>
      <point x="819" y="45"/>
      <point x="808" y="9"/>
    </contour>
    <contour>
      <point x="269" y="506" type="curve"/>
      <point x="445" y="526"/>
      <point x="737" y="578"/>
      <point x="1067" y="375" type="curve"/>
      <point x="808" y="541"/>
      <point x="634" y="570"/>
    </contour>
    <contour>
      <point x="1414" y="26" type="line"/>
      <point x="1391" y="34"/>
      <point x="1308" y="72"/>
      <point x="1162" y="108" type="curve"/>
      <point x="1162" y="108"/>
      <point x="1296" y="101"/>
      <point x="1402" y="57" type="curve"/>
      <point x="1402" y="57"/>
      <point x="1359" y="92"/>
      <point x="1241" y="136" type="curve"/>
      <point x="1241" y="136"/>
      <point x="1277" y="136"/>
      <point x="1357" y="108" type="curve"/>
      <point x="1357" y="108"/>
      <point x="1304" y="143"/>
      <point x="1169" y="170" type="curve"/>
      <point x="1169" y="170"/>
      <point x="1226" y="180"/>
      <point x="1296" y="159" type="curve"/>
      <point x="1296" y="159"/>
      <point x="1217" y="199"/>
      <point x="1162" y="206" type="curve"/>
      <point x="1162" y="206"/>
      <point x="1226" y="206"/>
      <point x="1260" y="199" type="curve"/>
      <point x="1178" y="242"/>
      <point x="1065" y="234"/>
      <point x="985" y="180" type="curve"/>
      <point x="1041" y="249"/>
      <point x="1128" y="249"/>
      <point x="1213" y="242" type="curve"/>
      <point x="1213" y="242"/>
      <point x="1169" y="258"/>
      <point x="1128" y="267" type="curve"/>
      <point x="1128" y="267"/>
      <point x="1147" y="278"/>
      <point x="1217" y="249" type="curve"/>
      <point x="1217" y="249"/>
      <point x="1162" y="286"/>
      <point x="1111" y="293" type="curve"/>
      <point x="1111" y="293"/>
      <point x="1143" y="301"/>
      <point x="1178" y="293" type="curve"/>
      <point x="1178" y="293"/>
      <point x="1128" y="305"/>
      <point x="1091" y="312" type="curve"/>
      <point x="1091" y="312"/>
      <point x="1120" y="312"/>
      <point x="1143" y="305" type="curve"/>
      <point x="1143" y="305"/>
      <point x="1084" y="337"/>
      <point x="1027" y="329" type="curve"/>
      <point x="1027" y="329"/>
      <point x="1041" y="341"/>
      <point x="1084" y="341" type="curve"/>
      <point x="1084" y="341"/>
      <point x="1012" y="349"/>
      <point x="925" y="329" type="curve"/>
      <point x="925" y="329"/>
      <point x="963" y="349"/>
      <point x="1012" y="364" type="curve"/>
      <point x="978" y="364"/>
      <point x="914" y="371"/>
      <point x="784" y="249" type="curve"/>
      <point x="780" y="249"/>
      <point x="836" y="337"/>
      <point x="949" y="375" type="curve"/>
      <point x="828" y="356"/>
      <point x="773" y="312"/>
      <point x="713" y="206" type="curve"/>
      <point x="756" y="329"/>
      <point x="784" y="356"/>
      <point x="959" y="413" type="curve"/>
      <point x="887" y="413"/>
      <point x="808" y="384"/>
      <point x="749" y="349" type="curve"/>
      <point x="780" y="384"/>
      <point x="808" y="399"/>
      <point x="914" y="435" type="curve"/>
      <point x="879" y="428"/>
      <point x="836" y="419"/>
      <point x="784" y="408" type="curve"/>
      <point x="784" y="408"/>
      <point x="799" y="428"/>
      <point x="851" y="447" type="curve"/>
      <point x="851" y="447"/>
      <point x="773" y="443"/>
      <point x="720" y="399" type="curve"/>
      <point x="720" y="399"/>
      <point x="780" y="454"/>
      <point x="843" y="470" type="curve"/>
      <point x="780" y="470"/>
      <point x="720" y="435"/>
      <point x="667" y="399" type="curve"/>
      <point x="667" y="399"/>
      <point x="730" y="470"/>
      <point x="792" y="481" type="curve"/>
      <point x="671" y="470"/>
      <point x="623" y="419"/>
      <point x="544" y="301" type="curve"/>
      <point x="544" y="301"/>
      <point x="595" y="413"/>
      <point x="658" y="462" type="curve"/>
      <point x="551" y="399"/>
      <point x="501" y="293"/>
      <point x="417" y="143" type="curve"/>
      <point x="438" y="206"/>
      <point x="466" y="278"/>
      <point x="580" y="443" type="curve"/>
      <point x="580" y="443"/>
      <point x="536" y="408"/>
      <point x="457" y="312" type="curve"/>
      <point x="457" y="312"/>
      <point x="492" y="392"/>
      <point x="551" y="491" type="curve"/>
      <point x="551" y="491"/>
      <point x="466" y="399"/>
      <point x="402" y="286" type="curve"/>
      <point x="402" y="286"/>
      <point x="445" y="392"/>
      <point x="492" y="454" type="curve"/>
      <point x="457" y="428"/>
      <point x="402" y="392"/>
      <point x="351" y="364" type="curve"/>
      <point x="351" y="364"/>
      <point x="409" y="413"/>
      <point x="466" y="477" type="curve"/>
      <point x="394" y="454"/>
      <point x="315" y="356"/>
      <point x="189" y="267" type="curve"/>
      <point x="189" y="267"/>
      <point x="244" y="312"/>
      <point x="269" y="356" type="curve"/>
      <point x="269" y="356"/>
      <point x="244" y="341"/>
      <point x="197" y="301" type="curve"/>
      <point x="197" y="301"/>
      <point x="259" y="375"/>
      <point x="339" y="447" type="curve"/>
      <point x="269" y="408"/>
      <point x="138" y="269"/>
      <point x="67" y="234" type="curve"/>
      <point x="118" y="267"/>
      <point x="165" y="320"/>
      <point x="237" y="408" type="curve"/>
      <point x="237" y="408"/>
      <point x="154" y="337"/>
      <point x="94" y="301" type="curve"/>
      <point x="94" y="301"/>
      <point x="102" y="329"/>
      <point x="138" y="356" type="curve"/>
      <point x="138" y="356"/>
      <point x="79" y="316"/>
      <point x="0" y="297" type="curve"/>
      <point x="0" y="305" type="line"/>
      <point x="72" y="324"/>
      <point x="123" y="364"/>
      <point x="197" y="413" type="curve"/>
      <point x="197" y="413"/>
      <point x="127" y="375"/>
      <point x="55" y="364" type="curve"/>
      <point x="55" y="364"/>
      <point x="161" y="413"/>
      <point x="273" y="477" type="curve"/>
      <point x="180" y="454"/>
      <point x="102" y="413"/>
      <point x="19" y="375" type="curve"/>
      <point x="59" y="413"/>
      <point x="127" y="443"/>
      <point x="237" y="498" type="curve"/>
      <point x="237" y="498"/>
      <point x="94" y="470"/>
      <point x="0" y="466" type="curve"/>
      <point x="0" y="477" type="line"/>
      <point x="32" y="477"/>
      <point x="72" y="487"/>
      <point x="118" y="491" type="curve"/>
      <point x="118" y="491"/>
      <point x="63" y="491"/>
      <point x="0" y="495" type="curve"/>
      <point x="0" y="502" type="line"/>
      <point x="48" y="502"/>
      <point x="94" y="506"/>
      <point x="154" y="514" type="curve"/>
      <point x="154" y="514"/>
      <point x="79" y="517"/>
      <point x="0" y="526" type="curve"/>
      <point x="0" y="534" type="line"/>
      <point x="40" y="534"/>
      <point x="87" y="534"/>
      <point x="146" y="534" type="curve"/>
      <point x="189" y="526"/>
      <point x="110" y="541"/>
      <point x="67" y="557" type="curve"/>
      <point x="67" y="557"/>
      <point x="161" y="541"/>
      <point x="244" y="534" type="curve"/>
      <point x="244" y="534"/>
      <point x="201" y="549"/>
      <point x="165" y="561" type="curve"/>
      <point x="259" y="541"/>
      <point x="383" y="534"/>
      <point x="383" y="534" type="curve"/>
      <point x="383" y="534"/>
      <point x="315" y="549"/>
      <point x="244" y="561" type="curve"/>
      <point x="244" y="561"/>
      <point x="331" y="557"/>
      <point x="488" y="549" type="curve"/>
      <point x="488" y="549"/>
      <point x="409" y="570"/>
      <point x="359" y="597" type="curve"/>
      <point x="359" y="597"/>
      <point x="394" y="593"/>
      <point x="466" y="578" type="curve"/>
      <point x="466" y="578"/>
      <point x="331" y="640"/>
      <point x="273" y="691" type="curve"/>
      <point x="339" y="648"/>
      <point x="383" y="627"/>
      <point x="488" y="593" type="curve"/>
      <point x="488" y="593"/>
      <point x="457" y="612"/>
      <point x="438" y="632" type="curve"/>
      <point x="438" y="632"/>
      <point x="481" y="604"/>
      <point x="551" y="578" type="curve"/>
      <point x="525" y="604" type="line"/>
      <point x="525" y="604"/>
      <point x="563" y="585"/>
      <point x="623" y="570" type="curve"/>
      <point x="623" y="570"/>
      <point x="595" y="597"/>
      <point x="580" y="612" type="curve"/>
      <point x="580" y="612"/>
      <point x="607" y="593"/>
      <point x="642" y="578" type="curve"/>
      <point x="642" y="578"/>
      <point x="623" y="604"/>
      <point x="570" y="702" type="curve"/>
      <point x="570" y="702"/>
      <point x="634" y="597"/>
      <point x="694" y="549" type="curve"/>
      <point x="694" y="549"/>
      <point x="678" y="585"/>
      <point x="642" y="632" type="curve"/>
      <point x="642" y="632"/>
      <point x="713" y="557"/>
      <point x="749" y="534" type="curve"/>
      <point x="749" y="534"/>
      <point x="709" y="597"/>
      <point x="671" y="656" type="curve"/>
      <point x="671" y="656"/>
      <point x="720" y="585"/>
      <point x="784" y="526" type="curve"/>
      <point x="784" y="526"/>
      <point x="709" y="652"/>
      <point x="667" y="750" type="curve"/>
      <point x="673" y="750" type="line"/>
      <point x="697" y="706"/>
      <point x="737" y="644"/>
      <point x="773" y="604" type="curve"/>
      <point x="773" y="604"/>
      <point x="749" y="671"/>
      <point x="720" y="750" type="curve"/>
      <point x="734" y="750" type="line"/>
      <point x="784" y="637"/>
      <point x="843" y="541"/>
      <point x="906" y="481" type="curve"/>
      <point x="906" y="481"/>
      <point x="819" y="612"/>
      <point x="784" y="720" type="curve"/>
      <point x="784" y="720"/>
      <point x="862" y="549"/>
      <point x="942" y="462" type="curve"/>
      <point x="942" y="462"/>
      <point x="891" y="541"/>
      <point x="862" y="597" type="curve"/>
      <point x="862" y="597"/>
      <point x="934" y="481"/>
      <point x="1012" y="419" type="curve"/>
      <point x="1012" y="419"/>
      <point x="949" y="506"/>
      <point x="921" y="561" type="curve"/>
      <point x="921" y="561"/>
      <point x="978" y="477"/>
      <point x="1012" y="447" type="curve"/>
      <point x="1012" y="447"/>
      <point x="985" y="491"/>
      <point x="959" y="557" type="curve"/>
      <point x="959" y="557"/>
      <point x="1032" y="435"/>
      <point x="1107" y="364" type="curve"/>
      <point x="1107" y="364"/>
      <point x="1012" y="481"/>
      <point x="985" y="561" type="curve"/>
      <point x="985" y="561"/>
      <point x="1012" y="521"/>
      <point x="1056" y="470" type="curve"/>
      <point x="1056" y="470"/>
      <point x="1027" y="549"/>
      <point x="993" y="640" type="curve"/>
      <point x="1056" y="521"/>
      <point x="1111" y="413"/>
      <point x="1178" y="320" type="curve"/>
      <point x="1178" y="320"/>
      <point x="1143" y="408"/>
      <point x="1120" y="462" type="curve"/>
      <point x="1120" y="462"/>
      <point x="1182" y="349"/>
      <point x="1217" y="278" type="curve"/>
      <point x="1217" y="278"/>
      <point x="1213" y="320"/>
      <point x="1190" y="375" type="curve"/>
      <point x="1190" y="375"/>
      <point x="1241" y="278"/>
      <point x="1270" y="234" type="curve"/>
      <point x="1270" y="234"/>
      <point x="1253" y="269"/>
      <point x="1249" y="305" type="curve"/>
      <point x="1249" y="305"/>
      <point x="1296" y="214"/>
      <point x="1332" y="170" type="curve"/>
      <point x="1332" y="170"/>
      <point x="1304" y="242"/>
      <point x="1289" y="305" type="curve"/>
      <point x="1289" y="305"/>
      <point x="1324" y="229"/>
      <point x="1368" y="159" type="curve"/>
      <point x="1368" y="159"/>
      <point x="1340" y="242"/>
      <point x="1324" y="329" type="curve"/>
      <point x="1324" y="329"/>
      <point x="1372" y="199"/>
      <point x="1414" y="96" type="curve"/>
    </contour>
    <contour>
      <point x="697" y="-178" type="curve"/>
      <point x="631" y="-105"/>
      <point x="631" y="-78"/>
      <point x="607" y="-6" type="curve"/>
      <point x="607" y="-6"/>
      <point x="634" y="-78"/>
      <point x="720" y="-120" type="curve"/>
      <point x="580" y="-14"/>
      <point x="631" y="180"/>
      <point x="634" y="249" type="curve"/>
      <point x="551" y="136"/>
      <point x="417" y="-14"/>
      <point x="307" y="-69" type="curve"/>
      <point x="273" y="20"/>
      <point x="288" y="121"/>
      <point x="331" y="249" type="curve"/>
      <point x="331" y="249"/>
      <point x="307" y="234"/>
      <point x="280" y="223" type="curve"/>
      <point x="244" y="143"/>
      <point x="180" y="57"/>
      <point x="48" y="-14" type="curve"/>
      <point x="102" y="-6"/>
      <point x="154" y="9"/>
      <point x="233" y="57" type="curve"/>
      <point x="189" y="13"/>
      <point x="138" y="-34"/>
      <point x="19" y="-69" type="curve"/>
      <point x="197" y="-58"/>
      <point x="259" y="13"/>
      <point x="259" y="13" type="curve"/>
      <point x="259" y="13"/>
      <point x="237" y="-34"/>
      <point x="197" y="-69" type="curve"/>
      <point x="197" y="-69"/>
      <point x="218" y="-69"/>
      <point x="269" y="-42" type="curve"/>
      <point x="269" y="-42"/>
      <point x="244" y="-78"/>
      <point x="174" y="-120" type="curve"/>
      <point x="174" y="-120"/>
      <point x="237" y="-105"/>
      <point x="288" y="-78" type="curve"/>
      <point x="273" y="-97"/>
      <point x="252" y="-120"/>
      <point x="189" y="-148" type="curve"/>
      <point x="189" y="-148"/>
      <point x="339" y="-105"/>
      <point x="472" y="20" type="curve"/>
      <point x="472" y="20"/>
      <point x="453" y="-23"/>
      <point x="386" y="-93" type="curve"/>
      <point x="386" y="-93"/>
      <point x="472" y="-42"/>
      <point x="563" y="83" type="curve"/>
      <point x="563" y="83"/>
      <point x="508" y="-14"/>
      <point x="453" y="-85" type="curve"/>
      <point x="453" y="-85"/>
      <point x="501" y="-49"/>
      <point x="551" y="30" type="curve"/>
      <point x="551" y="30"/>
      <point x="527" y="-42"/>
      <point x="492" y="-93" type="curve"/>
      <point x="492" y="-93"/>
      <point x="544" y="-58"/>
      <point x="588" y="-7" type="curve"/>
      <point x="597" y="-55"/>
      <point x="623" y="-133"/>
    </contour>
    <contour>
      <point x="0" y="432" type="line"/>
      <point x="23" y="432"/>
      <point x="44" y="432"/>
      <point x="67" y="435" type="curve"/>
      <point x="44" y="419"/>
      <point x="23" y="408"/>
      <point x="0" y="395" type="curve"/>
    </contour>
    <contour>
      <point x="921" y="597" type="curve"/>
      <point x="887" y="637"/>
      <point x="859" y="691"/>
      <point x="832" y="750" type="curve"/>
      <point x="855" y="750" type="line"/>
      <point x="866" y="727"/>
      <point x="875" y="706"/>
      <point x="887" y="683" type="curve"/>
      <point x="887" y="706"/>
      <point x="887" y="727"/>
      <point x="891" y="750" type="curve"/>
      <point x="921" y="750" type="line"/>
      <point x="914" y="702"/>
      <point x="919" y="656"/>
    </contour>
    <contour>
      <point x="342" y="581" type="curve"/>
      <point x="347" y="581"/>
      <point x="347" y="578"/>
      <point x="351" y="578" type="curve"/>
      <point x="347" y="578"/>
      <point x="347" y="581"/>
    </contour>
    <component base="one_unit"/>
  </outline>
</glyph>
<glyph name="three-counter" format="1">
  <advance width="1414"/>
  <outline>
    <contour>
      <point x="724" y="95" type="curve" smooth="yes"/>
      <point x="760" y="95"/>
      <point x="796" y="112"/>
      <point x="796" y="150" type="curve" smooth="yes"/>
      <point x="796.0" y="188.0"/>
      <point x="764.578975052" y="204.848550511"/>
      <point x="674" y="203" type="curve"/>
      <point x="674" y="278" type="line"/>
      <point x="764.578975052" y="276.151449489"/>
      <point x="796.0" y="292.0"/>
      <point x="796" y="330" type="curve" smooth="yes"/>
      <point x="796" y="368"/>
      <point x="760" y="386"/>
      <point x="724" y="386" type="curve" smooth="yes"/>
      <point x="686.0" y="386.0"/>
      <point x="618.507825133" y="363.935098054"/>
      <point x="597" y="253" type="curve"/>
      <point x="0" y="253" type="line"/>
      <point x="0" y="227" type="line"/>
      <point x="597" y="227" type="line"/>
      <point x="618.527648221" y="117.09569066"/>
      <point x="686.0" y="95.0"/>
    </contour>
  </outline>
</glyph>
